<?xml version="1.0" standalone="no"?>
<!DOCTYPE svg PUBLIC "-//W3C//DTD SVG 20010904//EN"
 "http://www.w3.org/TR/2001/REC-SVG-20010904/DTD/svg10.dtd">
<svg version="1.0" xmlns="http://www.w3.org/2000/svg"
 width="256.000000pt" height="256.000000pt" viewBox="0 0 256.000000 256.000000"
 preserveAspectRatio="xMidYMid meet">
<metadata>
Created by potrace 1.14, written by Peter Selinger 2001-2017
</metadata>
<g transform="translate(0.000000,256.000000) scale(0.100000,-0.100000)"
fill="#000000" stroke="none">
<path d="M0 1280 l0 -1280 1280 0 1280 0 0 1280 0 1280 -1280 0 -1280 0 0
-1280z m1328 1181 c78 -40 122 -111 122 -196 0 -93 -33 -138 -105 -140 -46 -1
-46 -1 -12 49 12 16 22 41 23 55 l3 25 -24 -29 c-22 -27 -24 -28 -26 -10 -2
26 -2 26 6 50 4 11 -4 3 -17 -17 -22 -34 -26 -36 -40 -22 -11 11 -15 29 -12
58 5 48 -2 38 -11 -19 l-7 -39 -19 24 c-11 14 -24 34 -30 45 -8 18 -9 17 -5
-5 2 -14 7 -41 11 -60 l8 -35 -24 25 c-24 25 -24 25 -27 3 -2 -14 -8 -20 -17
-17 -9 4 -7 -7 7 -36 18 -36 19 -45 8 -66 -16 -29 -22 -30 -37 -4 -11 17 -10
18 5 14 9 -4 2 3 -15 15 -36 23 -43 34 -15 24 13 -5 12 -2 -4 13 -12 10 -24
33 -28 51 -4 27 -3 31 12 27 16 -5 16 -5 0 6 -39 25 -14 115 47 169 72 63 152
78 223 42z m1122 -2176 c13 -14 21 -27 18 -30 -2 -3 -17 9 -33 25 -16 17 -24
30 -19 30 6 0 21 -11 34 -25z m-52 -102 l-52 -53 -28 27 -28 27 52 53 52 53
28 -27 28 -27 -52 -53z m-92 -45 l29 -33 -32 29 c-31 28 -38 36 -30 36 2 0 16
-15 33 -32z"/>
<path d="M1281 2283 c-1 -6 -4 -20 -7 -30 -5 -17 -5 -17 6 0 6 10 9 23 6 30
-3 9 -5 9 -5 0z"/>
<path d="M2354 226 c-37 -37 -44 -66 -16 -66 23 0 82 60 82 83 0 27 -29 20
-66 -17z"/>
</g>
</svg>
